
        <svg xmlns="http://www.w3.org/2000/svg" xmlns:xlink="http://www.w3.org/1999/xlink" version="1.1" width="3162.3313123410912" height="538.8226090357912" viewBox="0 0 3162.3313123410912 538.8226090357912">
			
			<g transform="scale(8.116565617054567) translate(10, 10)">
				<defs id="SvgjsDefs6729"/><g id="SvgjsG6730" featureKey="symbolFeature-0" transform="matrix(0.0556181560775476,0,0,0.0556181560775476,-0.3337089364652856,-0.3337089364652856)" fill="#fff"><defs xmlns="http://www.w3.org/2000/svg"/><g xmlns="http://www.w3.org/2000/svg"><path d="M423 840l-417 -417 417 -417 417 417 -417 417zm21 -756l0 52 266 267 53 0 -319 -319zm-41 52l0 -52 -319 319 52 0 267 -267zm41 574l0 53 319 -319 -53 0 -266 266zm-41 53l0 -53 -267 -266 -52 0 319 319zm20 -90l-249 -250 249 -249 250 249 -250 250z"/></g></g><g id="SvgjsG6731" featureKey="nameFeature-0" transform="matrix(1.509318330355968,0,0,1.509318330355968,61.6531637555461,-16.111817085475362)" fill="#fff"><path d="M17.04 12 l7.8 28 l-6.4 0 l-1.12 -4.04 l-6.92 0 l-1.12 4.04 l-6.4 0 l7.8 -28 l6.36 0 z M12.2 29.44 l3.32 0 l-1.68 -5.96 z M42.64 33.6 l0 -21.6 l6.4 0 l0 23.04 c0 2.76 -2.24 4.96 -5 4.96 l-9.84 0 c-2.76 0 -4.96 -2.2 -4.96 -4.96 l0 -23.04 l6.4 0 l0 21.6 l7 0 z M69.64 12 c2.72 0 4.96 2.24 4.96 5 l0 18 c0 2.76 -2.24 5 -4.96 5 l-14.84 0 l0 -28 l14.84 0 z M68.2 32.24 l0 -12.48 c0 -0.76 -0.6 -1.32 -1.32 -1.32 l-5.68 0 l0 15.16 l5.68 0 c0.72 0 1.32 -0.6 1.32 -1.36 z M86.76 12 l0 28 l-6.4 0 l0 -28 l6.4 0 z M92.52 12 l19.84 0 l0 6.44 l-6.72 0 l0 21.56 l-6.4 0 l0 -21.56 l-6.72 0 l0 -6.44 z M135.72 18.44 l-11.2 0 l0 4.36 l8.04 0 l0 6.4 l-8.04 0 l0 4.4 l11.2 0 l0 6.4 l-17.6 0 l0 -28 l17.6 0 l0 6.44 z M147.88 12 l0 21.6 l10.32 0 l0 6.4 l-16.72 0 l0 0 l0 -28 l6.4 0 z M170.36 12 l0 21.6 l10.32 0 l0 6.4 l-16.72 0 l0 0 l0 -28 l6.4 0 z M204.04 18.44 l-11.2 0 l0 4.36 l8.04 0 l0 6.4 l-8.04 0 l0 4.4 l11.2 0 l0 6.4 l-17.6 0 l0 -28 l17.6 0 l0 6.44 z"/></g>
			</g>
		</svg>
	